<svg xmlns="http://www.w3.org/2000/svg" xmlns:xlink="http://www.w3.org/1999/xlink" width="600" height="400" viewBox="0 0 2400 1600">
<defs>
  <clipPath id="clip640">
    <rect x="0" y="0" width="2400" height="1600"></rect>
  </clipPath>
</defs>
<path clip-path="url(#clip640)" d="M0 1600 L2400 1600 L2400 0 L0 0  Z" fill="#ffffff" fill-rule="evenodd" fill-opacity="1"></path>
<defs>
  <clipPath id="clip641">
    <rect x="480" y="0" width="1681" height="1600"></rect>
  </clipPath>
</defs>
<path clip-path="url(#clip640)" d="M219.38 1423.18 L2352.76 1423.18 L2352.76 47.2441 L219.38 47.2441  Z" fill="#ffffff" fill-rule="evenodd" fill-opacity="1"></path>
<defs>
  <clipPath id="clip642">
    <rect x="219" y="47" width="2134" height="1377"></rect>
  </clipPath>
</defs>
<polyline clip-path="url(#clip642)" style="stroke:#000000; stroke-linecap:round; stroke-linejoin:round; stroke-width:2; stroke-opacity:0.1; fill:none" points="703.468,1423.18 703.468,47.2441 "></polyline>
<polyline clip-path="url(#clip642)" style="stroke:#000000; stroke-linecap:round; stroke-linejoin:round; stroke-width:2; stroke-opacity:0.1; fill:none" points="1233.1,1423.18 1233.1,47.2441 "></polyline>
<polyline clip-path="url(#clip642)" style="stroke:#000000; stroke-linecap:round; stroke-linejoin:round; stroke-width:2; stroke-opacity:0.1; fill:none" points="1762.74,1423.18 1762.74,47.2441 "></polyline>
<polyline clip-path="url(#clip642)" style="stroke:#000000; stroke-linecap:round; stroke-linejoin:round; stroke-width:2; stroke-opacity:0.1; fill:none" points="2292.38,1423.18 2292.38,47.2441 "></polyline>
<polyline clip-path="url(#clip640)" style="stroke:#000000; stroke-linecap:round; stroke-linejoin:round; stroke-width:4; stroke-opacity:1; fill:none" points="219.38,1423.18 2352.76,1423.18 "></polyline>
<polyline clip-path="url(#clip640)" style="stroke:#000000; stroke-linecap:round; stroke-linejoin:round; stroke-width:4; stroke-opacity:1; fill:none" points="703.468,1423.18 703.468,1404.28 "></polyline>
<polyline clip-path="url(#clip640)" style="stroke:#000000; stroke-linecap:round; stroke-linejoin:round; stroke-width:4; stroke-opacity:1; fill:none" points="1233.1,1423.18 1233.1,1404.28 "></polyline>
<polyline clip-path="url(#clip640)" style="stroke:#000000; stroke-linecap:round; stroke-linejoin:round; stroke-width:4; stroke-opacity:1; fill:none" points="1762.74,1423.18 1762.74,1404.28 "></polyline>
<polyline clip-path="url(#clip640)" style="stroke:#000000; stroke-linecap:round; stroke-linejoin:round; stroke-width:4; stroke-opacity:1; fill:none" points="2292.38,1423.18 2292.38,1404.28 "></polyline>
<path clip-path="url(#clip640)" d="M693.746 1451.02 L712.102 1451.02 L712.102 1454.96 L698.028 1454.96 L698.028 1463.43 Q699.047 1463.08 700.065 1462.92 Q701.084 1462.73 702.102 1462.73 Q707.889 1462.73 711.269 1465.9 Q714.648 1469.08 714.648 1474.49 Q714.648 1480.07 711.176 1483.17 Q707.704 1486.25 701.385 1486.25 Q699.209 1486.25 696.94 1485.88 Q694.695 1485.51 692.287 1484.77 L692.287 1480.07 Q694.371 1481.2 696.593 1481.76 Q698.815 1482.32 701.292 1482.32 Q705.297 1482.32 707.635 1480.21 Q709.972 1478.1 709.972 1474.49 Q709.972 1470.88 707.635 1468.77 Q705.297 1466.67 701.292 1466.67 Q699.417 1466.67 697.542 1467.08 Q695.69 1467.5 693.746 1468.38 L693.746 1451.02 Z" fill="#000000" fill-rule="evenodd" fill-opacity="1"></path><path clip-path="url(#clip640)" d="M1207.79 1481.64 L1215.43 1481.64 L1215.43 1455.28 L1207.12 1456.95 L1207.12 1452.69 L1215.38 1451.02 L1220.06 1451.02 L1220.06 1481.64 L1227.7 1481.64 L1227.7 1485.58 L1207.79 1485.58 L1207.79 1481.64 Z" fill="#000000" fill-rule="evenodd" fill-opacity="1"></path><path clip-path="url(#clip640)" d="M1247.14 1454.1 Q1243.53 1454.1 1241.7 1457.66 Q1239.9 1461.2 1239.9 1468.33 Q1239.9 1475.44 1241.7 1479.01 Q1243.53 1482.55 1247.14 1482.55 Q1250.78 1482.55 1252.58 1479.01 Q1254.41 1475.44 1254.41 1468.33 Q1254.41 1461.2 1252.58 1457.66 Q1250.78 1454.1 1247.14 1454.1 M1247.14 1450.39 Q1252.95 1450.39 1256.01 1455 Q1259.09 1459.58 1259.09 1468.33 Q1259.09 1477.06 1256.01 1481.67 Q1252.95 1486.25 1247.14 1486.25 Q1241.33 1486.25 1238.25 1481.67 Q1235.2 1477.06 1235.2 1468.33 Q1235.2 1459.58 1238.25 1455 Q1241.33 1450.39 1247.14 1450.39 Z" fill="#000000" fill-rule="evenodd" fill-opacity="1"></path><path clip-path="url(#clip640)" d="M1737.93 1481.64 L1745.57 1481.64 L1745.57 1455.28 L1737.25 1456.95 L1737.25 1452.69 L1745.52 1451.02 L1750.19 1451.02 L1750.19 1481.64 L1757.83 1481.64 L1757.83 1485.58 L1737.93 1485.58 L1737.93 1481.64 Z" fill="#000000" fill-rule="evenodd" fill-opacity="1"></path><path clip-path="url(#clip640)" d="M1767.32 1451.02 L1785.68 1451.02 L1785.68 1454.96 L1771.61 1454.96 L1771.61 1463.43 Q1772.63 1463.08 1773.64 1462.92 Q1774.66 1462.73 1775.68 1462.73 Q1781.47 1462.73 1784.85 1465.9 Q1788.23 1469.08 1788.23 1474.49 Q1788.23 1480.07 1784.75 1483.17 Q1781.28 1486.25 1774.96 1486.25 Q1772.79 1486.25 1770.52 1485.88 Q1768.27 1485.51 1765.87 1484.77 L1765.87 1480.07 Q1767.95 1481.2 1770.17 1481.76 Q1772.39 1482.32 1774.87 1482.32 Q1778.88 1482.32 1781.21 1480.21 Q1783.55 1478.1 1783.55 1474.49 Q1783.55 1470.88 1781.21 1468.77 Q1778.88 1466.67 1774.87 1466.67 Q1773 1466.67 1771.12 1467.08 Q1769.27 1467.5 1767.32 1468.38 L1767.32 1451.02 Z" fill="#000000" fill-rule="evenodd" fill-opacity="1"></path><path clip-path="url(#clip640)" d="M2271.15 1481.64 L2287.47 1481.64 L2287.47 1485.58 L2265.53 1485.58 L2265.53 1481.64 Q2268.19 1478.89 2272.77 1474.26 Q2277.38 1469.61 2278.56 1468.27 Q2280.8 1465.74 2281.68 1464.01 Q2282.59 1462.25 2282.59 1460.56 Q2282.59 1457.8 2280.64 1456.07 Q2278.72 1454.33 2275.62 1454.33 Q2273.42 1454.33 2270.97 1455.09 Q2268.53 1455.86 2265.76 1457.41 L2265.76 1452.69 Q2268.58 1451.55 2271.03 1450.97 Q2273.49 1450.39 2275.53 1450.39 Q2280.9 1450.39 2284.09 1453.08 Q2287.28 1455.77 2287.28 1460.26 Q2287.28 1462.39 2286.47 1464.31 Q2285.69 1466.2 2283.58 1468.8 Q2283 1469.47 2279.9 1472.69 Q2276.8 1475.88 2271.15 1481.64 Z" fill="#000000" fill-rule="evenodd" fill-opacity="1"></path><path clip-path="url(#clip640)" d="M2307.28 1454.1 Q2303.67 1454.1 2301.84 1457.66 Q2300.04 1461.2 2300.04 1468.33 Q2300.04 1475.44 2301.84 1479.01 Q2303.67 1482.55 2307.28 1482.55 Q2310.92 1482.55 2312.72 1479.01 Q2314.55 1475.44 2314.55 1468.33 Q2314.55 1461.2 2312.72 1457.66 Q2310.92 1454.1 2307.28 1454.1 M2307.28 1450.39 Q2313.09 1450.39 2316.15 1455 Q2319.23 1459.58 2319.23 1468.33 Q2319.23 1477.06 2316.15 1481.67 Q2313.09 1486.25 2307.28 1486.25 Q2301.47 1486.25 2298.4 1481.67 Q2295.34 1477.06 2295.34 1468.33 Q2295.34 1459.58 2298.4 1455 Q2301.47 1450.39 2307.28 1450.39 Z" fill="#000000" fill-rule="evenodd" fill-opacity="1"></path><path clip-path="url(#clip640)" d="M1124.94 1525.81 L1124.94 1562.76 L1132.7 1562.76 Q1142.54 1562.76 1147.09 1558.3 Q1151.67 1553.85 1151.67 1544.24 Q1151.67 1534.69 1147.09 1530.26 Q1142.54 1525.81 1132.7 1525.81 L1124.94 1525.81 M1118.51 1520.52 L1131.72 1520.52 Q1145.53 1520.52 1151.99 1526.28 Q1158.45 1532.01 1158.45 1544.24 Q1158.45 1556.52 1151.96 1562.28 Q1145.47 1568.04 1131.72 1568.04 L1118.51 1568.04 L1118.51 1520.52 Z" fill="#000000" fill-rule="evenodd" fill-opacity="1"></path><path clip-path="url(#clip640)" d="M1168.45 1532.4 L1174.3 1532.4 L1174.3 1568.04 L1168.45 1568.04 L1168.45 1532.4 M1168.45 1518.52 L1174.3 1518.52 L1174.3 1525.93 L1168.45 1525.93 L1168.45 1518.52 Z" fill="#000000" fill-rule="evenodd" fill-opacity="1"></path><path clip-path="url(#clip640)" d="M1209.28 1533.45 L1209.28 1538.98 Q1206.8 1537.71 1204.13 1537.07 Q1201.45 1536.44 1198.59 1536.44 Q1194.23 1536.44 1192.03 1537.77 Q1189.87 1539.11 1189.87 1541.79 Q1189.87 1543.82 1191.43 1545 Q1192.99 1546.15 1197.7 1547.2 L1199.7 1547.64 Q1205.94 1548.98 1208.55 1551.43 Q1211.19 1553.85 1211.19 1558.21 Q1211.19 1563.17 1207.24 1566.07 Q1203.33 1568.97 1196.45 1568.97 Q1193.59 1568.97 1190.47 1568.39 Q1187.38 1567.85 1183.95 1566.74 L1183.95 1560.69 Q1187.19 1562.38 1190.34 1563.24 Q1193.49 1564.07 1196.58 1564.07 Q1200.72 1564.07 1202.95 1562.66 Q1205.18 1561.23 1205.18 1558.65 Q1205.18 1556.27 1203.55 1554.99 Q1201.96 1553.72 1196.52 1552.54 L1194.48 1552.07 Q1189.04 1550.92 1186.62 1548.56 Q1184.2 1546.18 1184.2 1542.04 Q1184.2 1537.01 1187.77 1534.27 Q1191.33 1531.54 1197.89 1531.54 Q1201.13 1531.54 1204 1532.01 Q1206.86 1532.49 1209.28 1533.45 Z" fill="#000000" fill-rule="evenodd" fill-opacity="1"></path><path clip-path="url(#clip640)" d="M1226.31 1522.27 L1226.31 1532.4 L1238.37 1532.4 L1238.37 1536.95 L1226.31 1536.95 L1226.31 1556.3 Q1226.31 1560.66 1227.49 1561.9 Q1228.7 1563.14 1232.36 1563.14 L1238.37 1563.14 L1238.37 1568.04 L1232.36 1568.04 Q1225.58 1568.04 1223 1565.53 Q1220.42 1562.98 1220.42 1556.3 L1220.42 1536.95 L1216.12 1536.95 L1216.12 1532.4 L1220.42 1532.4 L1220.42 1522.27 L1226.31 1522.27 Z" fill="#000000" fill-rule="evenodd" fill-opacity="1"></path><path clip-path="url(#clip640)" d="M1262.28 1550.12 Q1255.18 1550.12 1252.44 1551.75 Q1249.7 1553.37 1249.7 1557.29 Q1249.7 1560.4 1251.74 1562.25 Q1253.81 1564.07 1257.34 1564.07 Q1262.21 1564.07 1265.14 1560.63 Q1268.1 1557.16 1268.1 1551.43 L1268.1 1550.12 L1262.28 1550.12 M1273.96 1547.71 L1273.96 1568.04 L1268.1 1568.04 L1268.1 1562.63 Q1266.1 1565.88 1263.1 1567.44 Q1260.11 1568.97 1255.78 1568.97 Q1250.31 1568.97 1247.06 1565.91 Q1243.85 1562.82 1243.85 1557.67 Q1243.85 1551.65 1247.86 1548.6 Q1251.9 1545.54 1259.89 1545.54 L1268.1 1545.54 L1268.1 1544.97 Q1268.1 1540.93 1265.43 1538.73 Q1262.79 1536.5 1257.98 1536.5 Q1254.92 1536.5 1252.03 1537.23 Q1249.13 1537.97 1246.46 1539.43 L1246.46 1534.02 Q1249.67 1532.78 1252.7 1532.17 Q1255.72 1531.54 1258.58 1531.54 Q1266.32 1531.54 1270.14 1535.55 Q1273.96 1539.56 1273.96 1547.71 Z" fill="#000000" fill-rule="evenodd" fill-opacity="1"></path><path clip-path="url(#clip640)" d="M1315.65 1546.53 L1315.65 1568.04 L1309.8 1568.04 L1309.8 1546.72 Q1309.8 1541.66 1307.82 1539.14 Q1305.85 1536.63 1301.9 1536.63 Q1297.16 1536.63 1294.42 1539.65 Q1291.69 1542.68 1291.69 1547.9 L1291.69 1568.04 L1285.8 1568.04 L1285.8 1532.4 L1291.69 1532.4 L1291.69 1537.93 Q1293.79 1534.72 1296.62 1533.13 Q1299.48 1531.54 1303.21 1531.54 Q1309.35 1531.54 1312.5 1535.36 Q1315.65 1539.14 1315.65 1546.53 Z" fill="#000000" fill-rule="evenodd" fill-opacity="1"></path><path clip-path="url(#clip640)" d="M1352.99 1533.76 L1352.99 1539.24 Q1350.5 1537.87 1347.99 1537.2 Q1345.51 1536.5 1342.96 1536.5 Q1337.26 1536.5 1334.11 1540.13 Q1330.96 1543.73 1330.96 1550.25 Q1330.96 1556.78 1334.11 1560.4 Q1337.26 1564 1342.96 1564 Q1345.51 1564 1347.99 1563.33 Q1350.5 1562.63 1352.99 1561.26 L1352.99 1566.68 Q1350.54 1567.82 1347.89 1568.39 Q1345.29 1568.97 1342.32 1568.97 Q1334.27 1568.97 1329.53 1563.91 Q1324.79 1558.85 1324.79 1550.25 Q1324.79 1541.53 1329.56 1536.53 Q1334.37 1531.54 1342.71 1531.54 Q1345.41 1531.54 1347.99 1532.11 Q1350.57 1532.65 1352.99 1533.76 Z" fill="#000000" fill-rule="evenodd" fill-opacity="1"></path><path clip-path="url(#clip640)" d="M1393.66 1548.76 L1393.66 1551.62 L1366.74 1551.62 Q1367.12 1557.67 1370.37 1560.85 Q1373.64 1564 1379.47 1564 Q1382.84 1564 1385.99 1563.17 Q1389.18 1562.35 1392.3 1560.69 L1392.3 1566.23 Q1389.14 1567.57 1385.83 1568.27 Q1382.52 1568.97 1379.12 1568.97 Q1370.59 1568.97 1365.59 1564 Q1360.63 1559.04 1360.63 1550.57 Q1360.63 1541.82 1365.34 1536.69 Q1370.08 1531.54 1378.1 1531.54 Q1385.29 1531.54 1389.46 1536.18 Q1393.66 1540.8 1393.66 1548.76 M1387.81 1547.04 Q1387.74 1542.23 1385.1 1539.37 Q1382.49 1536.5 1378.16 1536.5 Q1373.26 1536.5 1370.3 1539.27 Q1367.37 1542.04 1366.93 1547.07 L1387.81 1547.04 Z" fill="#000000" fill-rule="evenodd" fill-opacity="1"></path><path clip-path="url(#clip640)" d="M1453.63 1546.53 L1453.63 1568.04 L1447.77 1568.04 L1447.77 1546.72 Q1447.77 1541.66 1445.8 1539.14 Q1443.83 1536.63 1439.88 1536.63 Q1435.14 1536.63 1432.4 1539.65 Q1429.66 1542.68 1429.66 1547.9 L1429.66 1568.04 L1423.77 1568.04 L1423.77 1518.52 L1429.66 1518.52 L1429.66 1537.93 Q1431.76 1534.72 1434.6 1533.13 Q1437.46 1531.54 1441.18 1531.54 Q1447.33 1531.54 1450.48 1535.36 Q1453.63 1539.14 1453.63 1546.53 Z" fill="#000000" fill-rule="evenodd" fill-opacity="1"></path><polyline clip-path="url(#clip642)" style="stroke:#000000; stroke-linecap:round; stroke-linejoin:round; stroke-width:2; stroke-opacity:0.1; fill:none" points="219.38,1384.24 2352.76,1384.24 "></polyline>
<polyline clip-path="url(#clip642)" style="stroke:#000000; stroke-linecap:round; stroke-linejoin:round; stroke-width:2; stroke-opacity:0.1; fill:none" points="219.38,1021.78 2352.76,1021.78 "></polyline>
<polyline clip-path="url(#clip642)" style="stroke:#000000; stroke-linecap:round; stroke-linejoin:round; stroke-width:2; stroke-opacity:0.1; fill:none" points="219.38,659.325 2352.76,659.325 "></polyline>
<polyline clip-path="url(#clip642)" style="stroke:#000000; stroke-linecap:round; stroke-linejoin:round; stroke-width:2; stroke-opacity:0.1; fill:none" points="219.38,296.868 2352.76,296.868 "></polyline>
<polyline clip-path="url(#clip640)" style="stroke:#000000; stroke-linecap:round; stroke-linejoin:round; stroke-width:4; stroke-opacity:1; fill:none" points="219.38,1423.18 219.38,47.2441 "></polyline>
<polyline clip-path="url(#clip640)" style="stroke:#000000; stroke-linecap:round; stroke-linejoin:round; stroke-width:4; stroke-opacity:1; fill:none" points="219.38,1384.24 238.278,1384.24 "></polyline>
<polyline clip-path="url(#clip640)" style="stroke:#000000; stroke-linecap:round; stroke-linejoin:round; stroke-width:4; stroke-opacity:1; fill:none" points="219.38,1021.78 238.278,1021.78 "></polyline>
<polyline clip-path="url(#clip640)" style="stroke:#000000; stroke-linecap:round; stroke-linejoin:round; stroke-width:4; stroke-opacity:1; fill:none" points="219.38,659.325 238.278,659.325 "></polyline>
<polyline clip-path="url(#clip640)" style="stroke:#000000; stroke-linecap:round; stroke-linejoin:round; stroke-width:4; stroke-opacity:1; fill:none" points="219.38,296.868 238.278,296.868 "></polyline>
<path clip-path="url(#clip640)" d="M126.205 1370.04 Q122.593 1370.04 120.765 1373.6 Q118.959 1377.14 118.959 1384.27 Q118.959 1391.38 120.765 1394.94 Q122.593 1398.49 126.205 1398.49 Q129.839 1398.49 131.644 1394.94 Q133.473 1391.38 133.473 1384.27 Q133.473 1377.14 131.644 1373.6 Q129.839 1370.04 126.205 1370.04 M126.205 1366.33 Q132.015 1366.33 135.07 1370.94 Q138.149 1375.52 138.149 1384.27 Q138.149 1393 135.07 1397.61 Q132.015 1402.19 126.205 1402.19 Q120.394 1402.19 117.316 1397.61 Q114.26 1393 114.26 1384.27 Q114.26 1375.52 117.316 1370.94 Q120.394 1366.33 126.205 1366.33 Z" fill="#000000" fill-rule="evenodd" fill-opacity="1"></path><path clip-path="url(#clip640)" d="M146.366 1395.64 L151.251 1395.64 L151.251 1401.52 L146.366 1401.52 L146.366 1395.64 Z" fill="#000000" fill-rule="evenodd" fill-opacity="1"></path><path clip-path="url(#clip640)" d="M171.436 1370.04 Q167.825 1370.04 165.996 1373.6 Q164.19 1377.14 164.19 1384.27 Q164.19 1391.38 165.996 1394.94 Q167.825 1398.49 171.436 1398.49 Q175.07 1398.49 176.876 1394.94 Q178.704 1391.38 178.704 1384.27 Q178.704 1377.14 176.876 1373.6 Q175.07 1370.04 171.436 1370.04 M171.436 1366.33 Q177.246 1366.33 180.301 1370.94 Q183.38 1375.52 183.38 1384.27 Q183.38 1393 180.301 1397.61 Q177.246 1402.19 171.436 1402.19 Q165.626 1402.19 162.547 1397.61 Q159.491 1393 159.491 1384.27 Q159.491 1375.52 162.547 1370.94 Q165.626 1366.33 171.436 1366.33 Z" fill="#000000" fill-rule="evenodd" fill-opacity="1"></path><path clip-path="url(#clip640)" d="M127.431 1007.58 Q123.82 1007.58 121.992 1011.14 Q120.186 1014.69 120.186 1021.82 Q120.186 1028.92 121.992 1032.49 Q123.82 1036.03 127.431 1036.03 Q131.066 1036.03 132.871 1032.49 Q134.7 1028.92 134.7 1021.82 Q134.7 1014.69 132.871 1011.14 Q131.066 1007.58 127.431 1007.58 M127.431 1003.88 Q133.242 1003.88 136.297 1008.48 Q139.376 1013.07 139.376 1021.82 Q139.376 1030.54 136.297 1035.15 Q133.242 1039.73 127.431 1039.73 Q121.621 1039.73 118.543 1035.15 Q115.487 1030.54 115.487 1021.82 Q115.487 1013.07 118.543 1008.48 Q121.621 1003.88 127.431 1003.88 Z" fill="#000000" fill-rule="evenodd" fill-opacity="1"></path><path clip-path="url(#clip640)" d="M147.593 1033.18 L152.478 1033.18 L152.478 1039.06 L147.593 1039.06 L147.593 1033.18 Z" fill="#000000" fill-rule="evenodd" fill-opacity="1"></path><path clip-path="url(#clip640)" d="M163.473 1035.13 L171.112 1035.13 L171.112 1008.76 L162.802 1010.43 L162.802 1006.17 L171.065 1004.5 L175.741 1004.5 L175.741 1035.13 L183.38 1035.13 L183.38 1039.06 L163.473 1039.06 L163.473 1035.13 Z" fill="#000000" fill-rule="evenodd" fill-opacity="1"></path><path clip-path="url(#clip640)" d="M127.802 645.123 Q124.191 645.123 122.362 648.688 Q120.556 652.23 120.556 659.359 Q120.556 666.466 122.362 670.031 Q124.191 673.572 127.802 673.572 Q131.436 673.572 133.242 670.031 Q135.07 666.466 135.07 659.359 Q135.07 652.23 133.242 648.688 Q131.436 645.123 127.802 645.123 M127.802 641.42 Q133.612 641.42 136.667 646.026 Q139.746 650.61 139.746 659.359 Q139.746 668.086 136.667 672.693 Q133.612 677.276 127.802 677.276 Q121.992 677.276 118.913 672.693 Q115.857 668.086 115.857 659.359 Q115.857 650.61 118.913 646.026 Q121.992 641.42 127.802 641.42 Z" fill="#000000" fill-rule="evenodd" fill-opacity="1"></path><path clip-path="url(#clip640)" d="M147.964 670.725 L152.848 670.725 L152.848 676.605 L147.964 676.605 L147.964 670.725 Z" fill="#000000" fill-rule="evenodd" fill-opacity="1"></path><path clip-path="url(#clip640)" d="M167.061 672.67 L183.38 672.67 L183.38 676.605 L161.436 676.605 L161.436 672.67 Q164.098 669.915 168.681 665.285 Q173.288 660.633 174.468 659.29 Q176.714 656.767 177.593 655.031 Q178.496 653.272 178.496 651.582 Q178.496 648.827 176.551 647.091 Q174.63 645.355 171.528 645.355 Q169.329 645.355 166.876 646.119 Q164.445 646.883 161.667 648.434 L161.667 643.711 Q164.491 642.577 166.945 641.998 Q169.399 641.42 171.436 641.42 Q176.806 641.42 180.001 644.105 Q183.195 646.79 183.195 651.281 Q183.195 653.41 182.385 655.332 Q181.598 657.23 179.491 659.822 Q178.913 660.494 175.811 663.711 Q172.709 666.906 167.061 672.67 Z" fill="#000000" fill-rule="evenodd" fill-opacity="1"></path><path clip-path="url(#clip640)" d="M126.853 282.667 Q123.242 282.667 121.413 286.231 Q119.607 289.773 119.607 296.903 Q119.607 304.009 121.413 307.574 Q123.242 311.116 126.853 311.116 Q130.487 311.116 132.292 307.574 Q134.121 304.009 134.121 296.903 Q134.121 289.773 132.292 286.231 Q130.487 282.667 126.853 282.667 M126.853 278.963 Q132.663 278.963 135.718 283.569 Q138.797 288.153 138.797 296.903 Q138.797 305.63 135.718 310.236 Q132.663 314.819 126.853 314.819 Q121.043 314.819 117.964 310.236 Q114.908 305.63 114.908 296.903 Q114.908 288.153 117.964 283.569 Q121.043 278.963 126.853 278.963 Z" fill="#000000" fill-rule="evenodd" fill-opacity="1"></path><path clip-path="url(#clip640)" d="M147.015 308.268 L151.899 308.268 L151.899 314.148 L147.015 314.148 L147.015 308.268 Z" fill="#000000" fill-rule="evenodd" fill-opacity="1"></path><path clip-path="url(#clip640)" d="M176.251 295.514 Q179.607 296.231 181.482 298.5 Q183.38 300.768 183.38 304.102 Q183.38 309.217 179.862 312.018 Q176.343 314.819 169.862 314.819 Q167.686 314.819 165.371 314.379 Q163.079 313.963 160.626 313.106 L160.626 308.592 Q162.57 309.727 164.885 310.305 Q167.2 310.884 169.723 310.884 Q174.121 310.884 176.413 309.148 Q178.727 307.412 178.727 304.102 Q178.727 301.046 176.575 299.333 Q174.445 297.597 170.626 297.597 L166.598 297.597 L166.598 293.755 L170.811 293.755 Q174.26 293.755 176.089 292.389 Q177.917 291 177.917 288.407 Q177.917 285.745 176.019 284.333 Q174.144 282.898 170.626 282.898 Q168.704 282.898 166.505 283.315 Q164.306 283.731 161.667 284.611 L161.667 280.444 Q164.329 279.704 166.644 279.333 Q168.982 278.963 171.042 278.963 Q176.366 278.963 179.468 281.394 Q182.57 283.801 182.57 287.921 Q182.57 290.792 180.926 292.782 Q179.283 294.75 176.251 295.514 Z" fill="#000000" fill-rule="evenodd" fill-opacity="1"></path><path clip-path="url(#clip640)" d="M16.4842 1304.88 L16.4842 1274.83 L21.895 1274.83 L21.895 1298.45 L35.9632 1298.45 L35.9632 1275.82 L41.3741 1275.82 L41.3741 1298.45 L58.5933 1298.45 L58.5933 1274.26 L64.0042 1274.26 L64.0042 1304.88 L16.4842 1304.88 Z" fill="#000000" fill-rule="evenodd" fill-opacity="1"></path><path clip-path="url(#clip640)" d="M28.3562 1234.32 L45.7028 1247.21 L64.0042 1233.65 L64.0042 1240.55 L49.9996 1250.93 L64.0042 1261.31 L64.0042 1268.21 L45.3526 1254.37 L28.3562 1267.03 L28.3562 1260.13 L41.0558 1250.68 L28.3562 1241.22 L28.3562 1234.32 Z" fill="#000000" fill-rule="evenodd" fill-opacity="1"></path><path clip-path="url(#clip640)" d="M46.0847 1209.17 Q46.0847 1216.27 47.7079 1219.01 Q49.3312 1221.74 53.2461 1221.74 Q56.3653 1221.74 58.2114 1219.71 Q60.0256 1217.64 60.0256 1214.1 Q60.0256 1209.23 56.5881 1206.31 Q53.1188 1203.35 47.3897 1203.35 L46.0847 1203.35 L46.0847 1209.17 M43.6657 1197.49 L64.0042 1197.49 L64.0042 1203.35 L58.5933 1203.35 Q61.8398 1205.35 63.3994 1208.34 Q64.9272 1211.33 64.9272 1215.66 Q64.9272 1221.14 61.8716 1224.38 Q58.7843 1227.6 53.6281 1227.6 Q47.6125 1227.6 44.5569 1223.59 Q41.5014 1219.55 41.5014 1211.56 L41.5014 1203.35 L40.9285 1203.35 Q36.8862 1203.35 34.6901 1206.02 Q32.4621 1208.66 32.4621 1213.47 Q32.4621 1216.52 33.1941 1219.42 Q33.9262 1222.32 35.3903 1224.99 L29.9795 1224.99 Q28.7381 1221.77 28.1334 1218.75 Q27.4968 1215.73 27.4968 1212.86 Q27.4968 1205.13 31.5072 1201.31 Q35.5176 1197.49 43.6657 1197.49 Z" fill="#000000" fill-rule="evenodd" fill-opacity="1"></path><path clip-path="url(#clip640)" d="M29.7248 1159.77 L35.1993 1159.77 Q33.8307 1162.26 33.1623 1164.77 Q32.4621 1167.25 32.4621 1169.8 Q32.4621 1175.5 36.0905 1178.65 Q39.6872 1181.8 46.212 1181.8 Q52.7369 1181.8 56.3653 1178.65 Q59.9619 1175.5 59.9619 1169.8 Q59.9619 1167.25 59.2935 1164.77 Q58.5933 1162.26 57.2247 1159.77 L62.6355 1159.77 Q63.7814 1162.22 64.3543 1164.87 Q64.9272 1167.48 64.9272 1170.44 Q64.9272 1178.49 59.8664 1183.23 Q54.8057 1187.97 46.212 1187.97 Q37.491 1187.97 32.4939 1183.2 Q27.4968 1178.39 27.4968 1170.05 Q27.4968 1167.35 28.0697 1164.77 Q28.6108 1162.19 29.7248 1159.77 Z" fill="#000000" fill-rule="evenodd" fill-opacity="1"></path><path clip-path="url(#clip640)" d="M18.2347 1143.79 L28.3562 1143.79 L28.3562 1131.73 L32.9077 1131.73 L32.9077 1143.79 L52.2594 1143.79 Q56.6199 1143.79 57.8613 1142.62 Q59.1026 1141.41 59.1026 1137.75 L59.1026 1131.73 L64.0042 1131.73 L64.0042 1137.75 Q64.0042 1144.53 61.4897 1147.11 Q58.9434 1149.68 52.2594 1149.68 L32.9077 1149.68 L32.9077 1153.98 L28.3562 1153.98 L28.3562 1149.68 L18.2347 1149.68 L18.2347 1143.79 Z" fill="#000000" fill-rule="evenodd" fill-opacity="1"></path><path clip-path="url(#clip640)" d="M46.0847 1087.11 Q46.0847 1094.21 47.7079 1096.94 Q49.3312 1099.68 53.2461 1099.68 Q56.3653 1099.68 58.2114 1097.64 Q60.0256 1095.57 60.0256 1092.04 Q60.0256 1087.17 56.5881 1084.24 Q53.1188 1081.28 47.3897 1081.28 L46.0847 1081.28 L46.0847 1087.11 M43.6657 1075.43 L64.0042 1075.43 L64.0042 1081.28 L58.5933 1081.28 Q61.8398 1083.29 63.3994 1086.28 Q64.9272 1089.27 64.9272 1093.6 Q64.9272 1099.08 61.8716 1102.32 Q58.7843 1105.54 53.6281 1105.54 Q47.6125 1105.54 44.5569 1101.53 Q41.5014 1097.48 41.5014 1089.5 L41.5014 1081.28 L40.9285 1081.28 Q36.8862 1081.28 34.6901 1083.96 Q32.4621 1086.6 32.4621 1091.41 Q32.4621 1094.46 33.1941 1097.36 Q33.9262 1100.25 35.3903 1102.93 L29.9795 1102.93 Q28.7381 1099.71 28.1334 1096.69 Q27.4968 1093.66 27.4968 1090.8 Q27.4968 1083.07 31.5072 1079.25 Q35.5176 1075.43 43.6657 1075.43 Z" fill="#000000" fill-rule="evenodd" fill-opacity="1"></path><path clip-path="url(#clip640)" d="M42.4881 1033.73 L64.0042 1033.73 L64.0042 1039.59 L42.679 1039.59 Q37.6183 1039.59 35.1038 1041.56 Q32.5894 1043.53 32.5894 1047.48 Q32.5894 1052.22 35.6131 1054.96 Q38.6368 1057.7 43.8567 1057.7 L64.0042 1057.7 L64.0042 1063.59 L28.3562 1063.59 L28.3562 1057.7 L33.8944 1057.7 Q30.6797 1055.6 29.0883 1052.77 Q27.4968 1049.9 27.4968 1046.18 Q27.4968 1040.03 31.3163 1036.88 Q35.1038 1033.73 42.4881 1033.73 Z" fill="#000000" fill-rule="evenodd" fill-opacity="1"></path><path clip-path="url(#clip640)" d="M33.7671 998.593 L14.479 998.593 L14.479 992.737 L64.0042 992.737 L64.0042 998.593 L58.657 998.593 Q61.8398 1000.44 63.3994 1003.27 Q64.9272 1006.07 64.9272 1010.02 Q64.9272 1016.48 59.771 1020.55 Q54.6147 1024.6 46.212 1024.6 Q37.8093 1024.6 32.6531 1020.55 Q27.4968 1016.48 27.4968 1010.02 Q27.4968 1006.07 29.0564 1003.27 Q30.5842 1000.44 33.7671 998.593 M46.212 1018.55 Q52.6732 1018.55 56.3653 1015.91 Q60.0256 1013.23 60.0256 1008.59 Q60.0256 1003.94 56.3653 1001.27 Q52.6732 998.593 46.212 998.593 Q39.7508 998.593 36.0905 1001.27 Q32.3984 1003.94 32.3984 1008.59 Q32.3984 1013.23 36.0905 1015.91 Q39.7508 1018.55 46.212 1018.55 Z" fill="#000000" fill-rule="evenodd" fill-opacity="1"></path><path clip-path="url(#clip640)" d="M46.0847 943.753 Q46.0847 950.85 47.7079 953.588 Q49.3312 956.325 53.2461 956.325 Q56.3653 956.325 58.2114 954.288 Q60.0256 952.219 60.0256 948.686 Q60.0256 943.816 56.5881 940.888 Q53.1188 937.928 47.3897 937.928 L46.0847 937.928 L46.0847 943.753 M43.6657 932.071 L64.0042 932.071 L64.0042 937.928 L58.5933 937.928 Q61.8398 939.933 63.3994 942.925 Q64.9272 945.917 64.9272 950.246 Q64.9272 955.72 61.8716 958.967 Q58.7843 962.181 53.6281 962.181 Q47.6125 962.181 44.5569 958.171 Q41.5014 954.129 41.5014 946.14 L41.5014 937.928 L40.9285 937.928 Q36.8862 937.928 34.6901 940.601 Q32.4621 943.243 32.4621 948.049 Q32.4621 951.105 33.1941 954.001 Q33.9262 956.898 35.3903 959.571 L29.9795 959.571 Q28.7381 956.357 28.1334 953.333 Q27.4968 950.309 27.4968 947.445 Q27.4968 939.71 31.5072 935.891 Q35.5176 932.071 43.6657 932.071 Z" fill="#000000" fill-rule="evenodd" fill-opacity="1"></path><path clip-path="url(#clip640)" d="M58.657 914.343 L77.5631 914.343 L77.5631 920.231 L28.3562 920.231 L28.3562 914.343 L33.7671 914.343 Q30.5842 912.497 29.0564 909.696 Q27.4968 906.863 27.4968 902.948 Q27.4968 896.455 32.6531 892.413 Q37.8093 888.339 46.212 888.339 Q54.6147 888.339 59.771 892.413 Q64.9272 896.455 64.9272 902.948 Q64.9272 906.863 63.3994 909.696 Q61.8398 912.497 58.657 914.343 M46.212 894.418 Q39.7508 894.418 36.0905 897.092 Q32.3984 899.734 32.3984 904.381 Q32.3984 909.028 36.0905 911.701 Q39.7508 914.343 46.212 914.343 Q52.6732 914.343 56.3653 911.701 Q60.0256 909.028 60.0256 904.381 Q60.0256 899.734 56.3653 897.092 Q52.6732 894.418 46.212 894.418 Z" fill="#000000" fill-rule="evenodd" fill-opacity="1"></path><path clip-path="url(#clip640)" d="M58.657 872.966 L77.5631 872.966 L77.5631 878.854 L28.3562 878.854 L28.3562 872.966 L33.7671 872.966 Q30.5842 871.12 29.0564 868.319 Q27.4968 865.486 27.4968 861.571 Q27.4968 855.078 32.6531 851.036 Q37.8093 846.962 46.212 846.962 Q54.6147 846.962 59.771 851.036 Q64.9272 855.078 64.9272 861.571 Q64.9272 865.486 63.3994 868.319 Q61.8398 871.12 58.657 872.966 M46.212 853.041 Q39.7508 853.041 36.0905 855.715 Q32.3984 858.357 32.3984 863.004 Q32.3984 867.65 36.0905 870.324 Q39.7508 872.966 46.212 872.966 Q52.6732 872.966 56.3653 870.324 Q60.0256 867.65 60.0256 863.004 Q60.0256 858.357 56.3653 855.715 Q52.6732 853.041 46.212 853.041 Z" fill="#000000" fill-rule="evenodd" fill-opacity="1"></path><path clip-path="url(#clip640)" d="M33.8307 816.598 Q33.2578 817.584 33.0032 818.762 Q32.7167 819.908 32.7167 821.308 Q32.7167 826.273 35.9632 828.947 Q39.1779 831.589 45.2253 831.589 L64.0042 831.589 L64.0042 837.477 L28.3562 837.477 L28.3562 831.589 L33.8944 831.589 Q30.6479 829.743 29.0883 826.783 Q27.4968 823.823 27.4968 819.589 Q27.4968 818.985 27.5923 818.253 Q27.656 817.521 27.8151 816.629 L33.8307 816.598 Z" fill="#000000" fill-rule="evenodd" fill-opacity="1"></path><path clip-path="url(#clip640)" d="M32.4621 798.073 Q32.4621 802.784 36.1542 805.521 Q39.8145 808.258 46.212 808.258 Q52.6095 808.258 56.3017 805.553 Q59.9619 802.816 59.9619 798.073 Q59.9619 793.395 56.2698 790.657 Q52.5777 787.92 46.212 787.92 Q39.8781 787.92 36.186 790.657 Q32.4621 793.395 32.4621 798.073 M27.4968 798.073 Q27.4968 790.434 32.4621 786.074 Q37.4273 781.713 46.212 781.713 Q54.9649 781.713 59.9619 786.074 Q64.9272 790.434 64.9272 798.073 Q64.9272 805.744 59.9619 810.105 Q54.9649 814.433 46.212 814.433 Q37.4273 814.433 32.4621 810.105 Q27.4968 805.744 27.4968 798.073 Z" fill="#000000" fill-rule="evenodd" fill-opacity="1"></path><path clip-path="url(#clip640)" d="M28.3562 744.379 L45.7028 757.269 L64.0042 743.71 L64.0042 750.617 L49.9996 760.993 L64.0042 771.369 L64.0042 778.276 L45.3526 764.431 L28.3562 777.098 L28.3562 770.192 L41.0558 760.738 L28.3562 751.285 L28.3562 744.379 Z" fill="#000000" fill-rule="evenodd" fill-opacity="1"></path><path clip-path="url(#clip640)" d="M28.3562 735.435 L28.3562 729.578 L64.0042 729.578 L64.0042 735.435 L28.3562 735.435 M14.479 735.435 L14.479 729.578 L21.895 729.578 L21.895 735.435 L14.479 735.435 Z" fill="#000000" fill-rule="evenodd" fill-opacity="1"></path><path clip-path="url(#clip640)" d="M35.1993 689.57 Q31.2526 687.374 29.3747 684.318 Q27.4968 681.263 27.4968 677.125 Q27.4968 671.555 31.4117 668.531 Q35.2948 665.507 42.4881 665.507 L64.0042 665.507 L64.0042 671.396 L42.679 671.396 Q37.5546 671.396 35.072 673.21 Q32.5894 675.024 32.5894 678.748 Q32.5894 683.3 35.6131 685.941 Q38.6368 688.583 43.8567 688.583 L64.0042 688.583 L64.0042 694.471 L42.679 694.471 Q37.5228 694.471 35.072 696.286 Q32.5894 698.1 32.5894 701.887 Q32.5894 706.375 35.6449 709.017 Q38.6686 711.659 43.8567 711.659 L64.0042 711.659 L64.0042 717.547 L28.3562 717.547 L28.3562 711.659 L33.8944 711.659 Q30.616 709.654 29.0564 706.853 Q27.4968 704.052 27.4968 700.201 Q27.4968 696.318 29.4702 693.612 Q31.4436 690.875 35.1993 689.57 Z" fill="#000000" fill-rule="evenodd" fill-opacity="1"></path><path clip-path="url(#clip640)" d="M46.0847 637.626 Q46.0847 644.723 47.7079 647.461 Q49.3312 650.198 53.2461 650.198 Q56.3653 650.198 58.2114 648.161 Q60.0256 646.092 60.0256 642.559 Q60.0256 637.689 56.5881 634.761 Q53.1188 631.801 47.3897 631.801 L46.0847 631.801 L46.0847 637.626 M43.6657 625.945 L64.0042 625.945 L64.0042 631.801 L58.5933 631.801 Q61.8398 633.806 63.3994 636.798 Q64.9272 639.79 64.9272 644.119 Q64.9272 649.593 61.8716 652.84 Q58.7843 656.054 53.6281 656.054 Q47.6125 656.054 44.5569 652.044 Q41.5014 648.002 41.5014 640.013 L41.5014 631.801 L40.9285 631.801 Q36.8862 631.801 34.6901 634.475 Q32.4621 637.116 32.4621 641.923 Q32.4621 644.978 33.1941 647.874 Q33.9262 650.771 35.3903 653.444 L29.9795 653.444 Q28.7381 650.23 28.1334 647.206 Q27.4968 644.182 27.4968 641.318 Q27.4968 633.583 31.5072 629.764 Q35.5176 625.945 43.6657 625.945 Z" fill="#000000" fill-rule="evenodd" fill-opacity="1"></path><path clip-path="url(#clip640)" d="M18.2347 608.089 L28.3562 608.089 L28.3562 596.026 L32.9077 596.026 L32.9077 608.089 L52.2594 608.089 Q56.6199 608.089 57.8613 606.911 Q59.1026 605.702 59.1026 602.041 L59.1026 596.026 L64.0042 596.026 L64.0042 602.041 Q64.0042 608.821 61.4897 611.399 Q58.9434 613.977 52.2594 613.977 L32.9077 613.977 L32.9077 618.274 L28.3562 618.274 L28.3562 613.977 L18.2347 613.977 L18.2347 608.089 Z" fill="#000000" fill-rule="evenodd" fill-opacity="1"></path><path clip-path="url(#clip640)" d="M44.7161 557.832 L47.5806 557.832 L47.5806 584.758 Q53.6281 584.377 56.8109 581.13 Q59.9619 577.852 59.9619 572.027 Q59.9619 568.653 59.1344 565.502 Q58.3069 562.319 56.6518 559.2 L62.1899 559.2 Q63.5267 562.351 64.227 565.661 Q64.9272 568.972 64.9272 572.377 Q64.9272 580.907 59.9619 585.904 Q54.9967 590.87 46.5303 590.87 Q37.7774 590.87 32.6531 586.159 Q27.4968 581.416 27.4968 573.396 Q27.4968 566.202 32.1438 562.033 Q36.7589 557.832 44.7161 557.832 M42.9973 563.688 Q38.1912 563.752 35.3266 566.393 Q32.4621 569.003 32.4621 573.332 Q32.4621 578.234 35.2312 581.194 Q38.0002 584.122 43.0292 584.568 L42.9973 563.688 Z" fill="#000000" fill-rule="evenodd" fill-opacity="1"></path><path clip-path="url(#clip640)" d="M28.3562 531.7 L28.3562 525.494 L58.275 514.354 L28.3562 503.214 L28.3562 497.007 L64.0042 510.375 L64.0042 518.332 L28.3562 531.7 Z" fill="#000000" fill-rule="evenodd" fill-opacity="1"></path><path clip-path="url(#clip640)" d="M46.0847 472.722 Q46.0847 479.82 47.7079 482.557 Q49.3312 485.294 53.2461 485.294 Q56.3653 485.294 58.2114 483.257 Q60.0256 481.188 60.0256 477.655 Q60.0256 472.786 56.5881 469.857 Q53.1188 466.897 47.3897 466.897 L46.0847 466.897 L46.0847 472.722 M43.6657 461.041 L64.0042 461.041 L64.0042 466.897 L58.5933 466.897 Q61.8398 468.903 63.3994 471.895 Q64.9272 474.886 64.9272 479.215 Q64.9272 484.69 61.8716 487.936 Q58.7843 491.151 53.6281 491.151 Q47.6125 491.151 44.5569 487.14 Q41.5014 483.098 41.5014 475.109 L41.5014 466.897 L40.9285 466.897 Q36.8862 466.897 34.6901 469.571 Q32.4621 472.213 32.4621 477.019 Q32.4621 480.074 33.1941 482.971 Q33.9262 485.867 35.3903 488.541 L29.9795 488.541 Q28.7381 485.326 28.1334 482.302 Q27.4968 479.279 27.4968 476.414 Q27.4968 468.68 31.5072 464.86 Q35.5176 461.041 43.6657 461.041 Z" fill="#000000" fill-rule="evenodd" fill-opacity="1"></path><path clip-path="url(#clip640)" d="M14.479 448.978 L14.479 443.122 L64.0042 443.122 L64.0042 448.978 L14.479 448.978 Z" fill="#000000" fill-rule="evenodd" fill-opacity="1"></path><path clip-path="url(#clip640)" d="M49.9359 431.472 L28.3562 431.472 L28.3562 425.616 L49.7131 425.616 Q54.7739 425.616 57.3202 423.642 Q59.8346 421.669 59.8346 417.722 Q59.8346 412.98 56.8109 410.243 Q53.7872 407.474 48.5673 407.474 L28.3562 407.474 L28.3562 401.617 L64.0042 401.617 L64.0042 407.474 L58.5296 407.474 Q61.7762 409.606 63.3676 412.439 Q64.9272 415.24 64.9272 418.964 Q64.9272 425.107 61.1078 428.289 Q57.2883 431.472 49.9359 431.472 M27.4968 416.736 L27.4968 416.736 Z" fill="#000000" fill-rule="evenodd" fill-opacity="1"></path><path clip-path="url(#clip640)" d="M44.7161 359.062 L47.5806 359.062 L47.5806 385.989 Q53.6281 385.607 56.8109 382.361 Q59.9619 379.083 59.9619 373.258 Q59.9619 369.884 59.1344 366.733 Q58.3069 363.55 56.6518 360.431 L62.1899 360.431 Q63.5267 363.582 64.227 366.892 Q64.9272 370.202 64.9272 373.608 Q64.9272 382.138 59.9619 387.135 Q54.9967 392.1 46.5303 392.1 Q37.7774 392.1 32.6531 387.39 Q27.4968 382.647 27.4968 374.627 Q27.4968 367.433 32.1438 363.264 Q36.7589 359.062 44.7161 359.062 M42.9973 364.919 Q38.1912 364.982 35.3266 367.624 Q32.4621 370.234 32.4621 374.563 Q32.4621 379.464 35.2312 382.425 Q38.0002 385.353 43.0292 385.798 L42.9973 364.919 Z" fill="#000000" fill-rule="evenodd" fill-opacity="1"></path><path clip-path="url(#clip640)" d="M33.7671 305.272 L14.479 305.272 L14.479 299.416 L64.0042 299.416 L64.0042 305.272 L58.657 305.272 Q61.8398 307.118 63.3994 309.951 Q64.9272 312.752 64.9272 316.699 Q64.9272 323.16 59.771 327.234 Q54.6147 331.276 46.212 331.276 Q37.8093 331.276 32.6531 327.234 Q27.4968 323.16 27.4968 316.699 Q27.4968 312.752 29.0564 309.951 Q30.5842 307.118 33.7671 305.272 M46.212 325.229 Q52.6732 325.229 56.3653 322.587 Q60.0256 319.913 60.0256 315.266 Q60.0256 310.619 56.3653 307.946 Q52.6732 305.272 46.212 305.272 Q39.7508 305.272 36.0905 307.946 Q32.3984 310.619 32.3984 315.266 Q32.3984 319.913 36.0905 322.587 Q39.7508 325.229 46.212 325.229 Z" fill="#000000" fill-rule="evenodd" fill-opacity="1"></path><path clip-path="url(#clip640)" d="M33.7671 263.895 L14.479 263.895 L14.479 258.039 L64.0042 258.039 L64.0042 263.895 L58.657 263.895 Q61.8398 265.741 63.3994 268.574 Q64.9272 271.375 64.9272 275.321 Q64.9272 281.783 59.771 285.857 Q54.6147 289.899 46.212 289.899 Q37.8093 289.899 32.6531 285.857 Q27.4968 281.783 27.4968 275.321 Q27.4968 271.375 29.0564 268.574 Q30.5842 265.741 33.7671 263.895 M46.212 283.852 Q52.6732 283.852 56.3653 281.21 Q60.0256 278.536 60.0256 273.889 Q60.0256 269.242 56.3653 266.569 Q52.6732 263.895 46.212 263.895 Q39.7508 263.895 36.0905 266.569 Q32.3984 269.242 32.3984 273.889 Q32.3984 278.536 36.0905 281.21 Q39.7508 283.852 46.212 283.852 Z" fill="#000000" fill-rule="evenodd" fill-opacity="1"></path><path clip-path="url(#clip640)" d="M14.5426 231.907 Q21.8632 236.172 29.0246 238.241 Q36.186 240.31 43.5384 240.31 Q50.8908 240.31 58.1159 238.241 Q65.3091 236.141 72.5979 231.907 L72.5979 237 Q65.1182 241.774 57.8931 244.161 Q50.668 246.517 43.5384 246.517 Q36.4406 246.517 29.2474 244.161 Q22.0542 241.806 14.5426 237 L14.5426 231.907 Z" fill="#000000" fill-rule="evenodd" fill-opacity="1"></path><path clip-path="url(#clip640)" d="M42.4881 190.912 L64.0042 190.912 L64.0042 196.769 L42.679 196.769 Q37.6183 196.769 35.1038 198.742 Q32.5894 200.715 32.5894 204.662 Q32.5894 209.405 35.6131 212.142 Q38.6368 214.879 43.8567 214.879 L64.0042 214.879 L64.0042 220.767 L14.479 220.767 L14.479 214.879 L33.8944 214.879 Q30.6797 212.778 29.0883 209.946 Q27.4968 207.081 27.4968 203.357 Q27.4968 197.214 31.3163 194.063 Q35.1038 190.912 42.4881 190.912 Z" fill="#000000" fill-rule="evenodd" fill-opacity="1"></path><path clip-path="url(#clip640)" d="M14.5426 180.154 L14.5426 175.062 Q22.0542 170.287 29.2474 167.932 Q36.4406 165.545 43.5384 165.545 Q50.668 165.545 57.8931 167.932 Q65.1182 170.287 72.5979 175.062 L72.5979 180.154 Q65.3091 175.921 58.1159 173.852 Q50.8908 171.751 43.5384 171.751 Q36.186 171.751 29.0246 173.852 Q21.8632 175.921 14.5426 180.154 Z" fill="#000000" fill-rule="evenodd" fill-opacity="1"></path><polyline clip-path="url(#clip642)" style="stroke:#009af9; stroke-linecap:round; stroke-linejoin:round; stroke-width:4; stroke-opacity:1; fill:none" points="279.759,1383.76 385.686,1365.41 491.613,1115.44 597.541,312.534 703.468,88.0801 809.395,711.676 915.322,1165.69 1021.25,1325.88 1127.18,1369.93 1233.1,1380.74 1339.03,1383.23 1444.96,1383.97 1550.89,1384.19 1656.81,1384.23 1762.74,1384.24 1868.67,1384.24 1974.6,1384.24 2080.52,1384.24 2186.45,1384.24 2292.38,1384.24 "></polyline>
<circle clip-path="url(#clip642)" cx="279.759" cy="1383.76" r="14.4" fill="#009af9" fill-rule="evenodd" fill-opacity="1" stroke="#000000" stroke-opacity="1" stroke-width="3.2"></circle>
<circle clip-path="url(#clip642)" cx="385.686" cy="1365.41" r="14.4" fill="#009af9" fill-rule="evenodd" fill-opacity="1" stroke="#000000" stroke-opacity="1" stroke-width="3.2"></circle>
<circle clip-path="url(#clip642)" cx="491.613" cy="1115.44" r="14.4" fill="#009af9" fill-rule="evenodd" fill-opacity="1" stroke="#000000" stroke-opacity="1" stroke-width="3.2"></circle>
<circle clip-path="url(#clip642)" cx="597.541" cy="312.534" r="14.4" fill="#009af9" fill-rule="evenodd" fill-opacity="1" stroke="#000000" stroke-opacity="1" stroke-width="3.2"></circle>
<circle clip-path="url(#clip642)" cx="703.468" cy="88.0801" r="14.4" fill="#009af9" fill-rule="evenodd" fill-opacity="1" stroke="#000000" stroke-opacity="1" stroke-width="3.2"></circle>
<circle clip-path="url(#clip642)" cx="809.395" cy="711.676" r="14.4" fill="#009af9" fill-rule="evenodd" fill-opacity="1" stroke="#000000" stroke-opacity="1" stroke-width="3.2"></circle>
<circle clip-path="url(#clip642)" cx="915.322" cy="1165.69" r="14.4" fill="#009af9" fill-rule="evenodd" fill-opacity="1" stroke="#000000" stroke-opacity="1" stroke-width="3.2"></circle>
<circle clip-path="url(#clip642)" cx="1021.25" cy="1325.88" r="14.4" fill="#009af9" fill-rule="evenodd" fill-opacity="1" stroke="#000000" stroke-opacity="1" stroke-width="3.2"></circle>
<circle clip-path="url(#clip642)" cx="1127.18" cy="1369.93" r="14.4" fill="#009af9" fill-rule="evenodd" fill-opacity="1" stroke="#000000" stroke-opacity="1" stroke-width="3.2"></circle>
<circle clip-path="url(#clip642)" cx="1233.1" cy="1380.74" r="14.4" fill="#009af9" fill-rule="evenodd" fill-opacity="1" stroke="#000000" stroke-opacity="1" stroke-width="3.2"></circle>
<circle clip-path="url(#clip642)" cx="1339.03" cy="1383.23" r="14.4" fill="#009af9" fill-rule="evenodd" fill-opacity="1" stroke="#000000" stroke-opacity="1" stroke-width="3.2"></circle>
<circle clip-path="url(#clip642)" cx="1444.96" cy="1383.97" r="14.4" fill="#009af9" fill-rule="evenodd" fill-opacity="1" stroke="#000000" stroke-opacity="1" stroke-width="3.2"></circle>
<circle clip-path="url(#clip642)" cx="1550.89" cy="1384.19" r="14.4" fill="#009af9" fill-rule="evenodd" fill-opacity="1" stroke="#000000" stroke-opacity="1" stroke-width="3.2"></circle>
<circle clip-path="url(#clip642)" cx="1656.81" cy="1384.23" r="14.4" fill="#009af9" fill-rule="evenodd" fill-opacity="1" stroke="#000000" stroke-opacity="1" stroke-width="3.2"></circle>
<circle clip-path="url(#clip642)" cx="1762.74" cy="1384.24" r="14.4" fill="#009af9" fill-rule="evenodd" fill-opacity="1" stroke="#000000" stroke-opacity="1" stroke-width="3.2"></circle>
<circle clip-path="url(#clip642)" cx="1868.67" cy="1384.24" r="14.4" fill="#009af9" fill-rule="evenodd" fill-opacity="1" stroke="#000000" stroke-opacity="1" stroke-width="3.2"></circle>
<circle clip-path="url(#clip642)" cx="1974.6" cy="1384.24" r="14.4" fill="#009af9" fill-rule="evenodd" fill-opacity="1" stroke="#000000" stroke-opacity="1" stroke-width="3.2"></circle>
<circle clip-path="url(#clip642)" cx="2080.52" cy="1384.24" r="14.4" fill="#009af9" fill-rule="evenodd" fill-opacity="1" stroke="#000000" stroke-opacity="1" stroke-width="3.2"></circle>
<circle clip-path="url(#clip642)" cx="2186.45" cy="1384.24" r="14.4" fill="#009af9" fill-rule="evenodd" fill-opacity="1" stroke="#000000" stroke-opacity="1" stroke-width="3.2"></circle>
<circle clip-path="url(#clip642)" cx="2292.38" cy="1384.24" r="14.4" fill="#009af9" fill-rule="evenodd" fill-opacity="1" stroke="#000000" stroke-opacity="1" stroke-width="3.2"></circle>
<polyline clip-path="url(#clip642)" style="stroke:#e26f46; stroke-linecap:round; stroke-linejoin:round; stroke-width:4; stroke-opacity:1; fill:none" points="279.759,1383.78 385.686,1365.18 491.613,1106.93 597.541,291.25 703.468,86.1857 809.395,730.035 915.322,1178.75 1021.25,1327.47 1127.18,1368.45 1233.1,1380.75 1339.03,1383.47 1444.96,1384.07 1550.89,1384.21 1656.81,1384.23 1762.74,1384.24 1868.67,1384.24 1974.6,1384.24 2080.52,1384.24 2186.45,1384.24 2292.38,1384.24 "></polyline>
<path clip-path="url(#clip642)" d="M263.759 1367.78 L263.759 1399.78 L295.759 1399.78 L295.759 1367.78 L263.759 1367.78 Z" fill="#e26f46" fill-rule="evenodd" fill-opacity="1" stroke="#000000" stroke-opacity="1" stroke-width="3.2"></path>
<path clip-path="url(#clip642)" d="M369.686 1349.18 L369.686 1381.18 L401.686 1381.18 L401.686 1349.18 L369.686 1349.18 Z" fill="#e26f46" fill-rule="evenodd" fill-opacity="1" stroke="#000000" stroke-opacity="1" stroke-width="3.2"></path>
<path clip-path="url(#clip642)" d="M475.613 1090.93 L475.613 1122.93 L507.613 1122.93 L507.613 1090.93 L475.613 1090.93 Z" fill="#e26f46" fill-rule="evenodd" fill-opacity="1" stroke="#000000" stroke-opacity="1" stroke-width="3.2"></path>
<path clip-path="url(#clip642)" d="M581.541 275.25 L581.541 307.25 L613.541 307.25 L613.541 275.25 L581.541 275.25 Z" fill="#e26f46" fill-rule="evenodd" fill-opacity="1" stroke="#000000" stroke-opacity="1" stroke-width="3.2"></path>
<path clip-path="url(#clip642)" d="M687.468 70.1857 L687.468 102.186 L719.468 102.186 L719.468 70.1857 L687.468 70.1857 Z" fill="#e26f46" fill-rule="evenodd" fill-opacity="1" stroke="#000000" stroke-opacity="1" stroke-width="3.2"></path>
<path clip-path="url(#clip642)" d="M793.395 714.035 L793.395 746.035 L825.395 746.035 L825.395 714.035 L793.395 714.035 Z" fill="#e26f46" fill-rule="evenodd" fill-opacity="1" stroke="#000000" stroke-opacity="1" stroke-width="3.2"></path>
<path clip-path="url(#clip642)" d="M899.322 1162.75 L899.322 1194.75 L931.322 1194.75 L931.322 1162.75 L899.322 1162.75 Z" fill="#e26f46" fill-rule="evenodd" fill-opacity="1" stroke="#000000" stroke-opacity="1" stroke-width="3.2"></path>
<path clip-path="url(#clip642)" d="M1005.25 1311.47 L1005.25 1343.47 L1037.25 1343.47 L1037.25 1311.47 L1005.25 1311.47 Z" fill="#e26f46" fill-rule="evenodd" fill-opacity="1" stroke="#000000" stroke-opacity="1" stroke-width="3.2"></path>
<path clip-path="url(#clip642)" d="M1111.18 1352.45 L1111.18 1384.45 L1143.18 1384.45 L1143.18 1352.45 L1111.18 1352.45 Z" fill="#e26f46" fill-rule="evenodd" fill-opacity="1" stroke="#000000" stroke-opacity="1" stroke-width="3.2"></path>
<path clip-path="url(#clip642)" d="M1217.1 1364.75 L1217.1 1396.75 L1249.1 1396.75 L1249.1 1364.75 L1217.1 1364.75 Z" fill="#e26f46" fill-rule="evenodd" fill-opacity="1" stroke="#000000" stroke-opacity="1" stroke-width="3.2"></path>
<path clip-path="url(#clip642)" d="M1323.03 1367.47 L1323.03 1399.47 L1355.03 1399.47 L1355.03 1367.47 L1323.03 1367.47 Z" fill="#e26f46" fill-rule="evenodd" fill-opacity="1" stroke="#000000" stroke-opacity="1" stroke-width="3.2"></path>
<path clip-path="url(#clip642)" d="M1428.96 1368.07 L1428.96 1400.07 L1460.96 1400.07 L1460.96 1368.07 L1428.96 1368.07 Z" fill="#e26f46" fill-rule="evenodd" fill-opacity="1" stroke="#000000" stroke-opacity="1" stroke-width="3.2"></path>
<path clip-path="url(#clip642)" d="M1534.89 1368.21 L1534.89 1400.21 L1566.89 1400.21 L1566.89 1368.21 L1534.89 1368.21 Z" fill="#e26f46" fill-rule="evenodd" fill-opacity="1" stroke="#000000" stroke-opacity="1" stroke-width="3.2"></path>
<path clip-path="url(#clip642)" d="M1640.81 1368.23 L1640.81 1400.23 L1672.81 1400.23 L1672.81 1368.23 L1640.81 1368.23 Z" fill="#e26f46" fill-rule="evenodd" fill-opacity="1" stroke="#000000" stroke-opacity="1" stroke-width="3.2"></path>
<path clip-path="url(#clip642)" d="M1746.74 1368.24 L1746.74 1400.24 L1778.74 1400.24 L1778.74 1368.24 L1746.74 1368.24 Z" fill="#e26f46" fill-rule="evenodd" fill-opacity="1" stroke="#000000" stroke-opacity="1" stroke-width="3.2"></path>
<path clip-path="url(#clip642)" d="M1852.67 1368.24 L1852.67 1400.24 L1884.67 1400.24 L1884.67 1368.24 L1852.67 1368.24 Z" fill="#e26f46" fill-rule="evenodd" fill-opacity="1" stroke="#000000" stroke-opacity="1" stroke-width="3.2"></path>
<path clip-path="url(#clip642)" d="M1958.6 1368.24 L1958.6 1400.24 L1990.6 1400.24 L1990.6 1368.24 L1958.6 1368.24 Z" fill="#e26f46" fill-rule="evenodd" fill-opacity="1" stroke="#000000" stroke-opacity="1" stroke-width="3.2"></path>
<path clip-path="url(#clip642)" d="M2064.52 1368.24 L2064.52 1400.24 L2096.52 1400.24 L2096.52 1368.24 L2064.52 1368.24 Z" fill="#e26f46" fill-rule="evenodd" fill-opacity="1" stroke="#000000" stroke-opacity="1" stroke-width="3.2"></path>
<path clip-path="url(#clip642)" d="M2170.45 1368.24 L2170.45 1400.24 L2202.45 1400.24 L2202.45 1368.24 L2170.45 1368.24 Z" fill="#e26f46" fill-rule="evenodd" fill-opacity="1" stroke="#000000" stroke-opacity="1" stroke-width="3.2"></path>
<path clip-path="url(#clip642)" d="M2276.38 1368.24 L2276.38 1400.24 L2308.38 1400.24 L2308.38 1368.24 L2276.38 1368.24 Z" fill="#e26f46" fill-rule="evenodd" fill-opacity="1" stroke="#000000" stroke-opacity="1" stroke-width="3.2"></path>
<path clip-path="url(#clip640)" d="M1629.67 248.629 L2281.64 248.629 L2281.64 93.1086 L1629.67 93.1086  Z" fill="#ffffff" fill-rule="evenodd" fill-opacity="1"></path>
<polyline clip-path="url(#clip640)" style="stroke:#000000; stroke-linecap:round; stroke-linejoin:round; stroke-width:4; stroke-opacity:1; fill:none" points="1629.67,248.629 2281.64,248.629 2281.64,93.1086 1629.67,93.1086 1629.67,248.629 "></polyline>
<polyline clip-path="url(#clip640)" style="stroke:#009af9; stroke-linecap:round; stroke-linejoin:round; stroke-width:4; stroke-opacity:1; fill:none" points="1653.38,144.949 1795.6,144.949 "></polyline>
<circle clip-path="url(#clip640)" cx="1724.49" cy="144.949" r="19.7535" fill="#009af9" fill-rule="evenodd" fill-opacity="1" stroke="#000000" stroke-opacity="1" stroke-width="5.12"></circle>
<path clip-path="url(#clip640)" d="M1843.33 148.201 L1843.33 150.284 L1823.75 150.284 Q1824.03 154.682 1826.39 156.997 Q1828.77 159.289 1833.01 159.289 Q1835.46 159.289 1837.76 158.687 Q1840.07 158.085 1842.34 156.881 L1842.34 160.909 Q1840.05 161.881 1837.64 162.391 Q1835.23 162.9 1832.76 162.9 Q1826.55 162.9 1822.92 159.289 Q1819.31 155.678 1819.31 149.52 Q1819.31 143.155 1822.73 139.428 Q1826.18 135.678 1832.02 135.678 Q1837.25 135.678 1840.28 139.057 Q1843.33 142.414 1843.33 148.201 M1839.08 146.951 Q1839.03 143.456 1837.11 141.372 Q1835.21 139.289 1832.06 139.289 Q1828.5 139.289 1826.34 141.303 Q1824.21 143.317 1823.89 146.974 L1839.08 146.951 Z" fill="#000000" fill-rule="evenodd" fill-opacity="1"></path><path clip-path="url(#clip640)" d="M1871.04 136.303 L1861.67 148.919 L1871.53 162.229 L1866.51 162.229 L1858.96 152.043 L1851.41 162.229 L1846.39 162.229 L1856.46 148.664 L1847.25 136.303 L1852.27 136.303 L1859.15 145.539 L1866.02 136.303 L1871.04 136.303 Z" fill="#000000" fill-rule="evenodd" fill-opacity="1"></path><path clip-path="url(#clip640)" d="M1889.33 149.196 Q1884.17 149.196 1882.18 150.377 Q1880.19 151.557 1880.19 154.405 Q1880.19 156.673 1881.67 158.016 Q1883.17 159.335 1885.74 159.335 Q1889.28 159.335 1891.41 156.835 Q1893.57 154.312 1893.57 150.145 L1893.57 149.196 L1889.33 149.196 M1897.83 147.437 L1897.83 162.229 L1893.57 162.229 L1893.57 158.293 Q1892.11 160.655 1889.93 161.789 Q1887.76 162.9 1884.61 162.9 Q1880.63 162.9 1878.27 160.678 Q1875.93 158.432 1875.93 154.682 Q1875.93 150.307 1878.84 148.085 Q1881.78 145.863 1887.59 145.863 L1893.57 145.863 L1893.57 145.446 Q1893.57 142.507 1891.62 140.909 Q1889.7 139.289 1886.21 139.289 Q1883.98 139.289 1881.88 139.821 Q1879.77 140.354 1877.83 141.419 L1877.83 137.483 Q1880.16 136.581 1882.36 136.141 Q1884.56 135.678 1886.64 135.678 Q1892.27 135.678 1895.05 138.594 Q1897.83 141.511 1897.83 147.437 Z" fill="#000000" fill-rule="evenodd" fill-opacity="1"></path><path clip-path="url(#clip640)" d="M1925.26 137.298 L1925.26 141.28 Q1923.45 140.284 1921.62 139.798 Q1919.82 139.289 1917.96 139.289 Q1913.82 139.289 1911.53 141.928 Q1909.24 144.544 1909.24 149.289 Q1909.24 154.034 1911.53 156.673 Q1913.82 159.289 1917.96 159.289 Q1919.82 159.289 1921.62 158.803 Q1923.45 158.293 1925.26 157.298 L1925.26 161.233 Q1923.47 162.067 1921.55 162.483 Q1919.65 162.9 1917.5 162.9 Q1911.64 162.9 1908.2 159.219 Q1904.75 155.539 1904.75 149.289 Q1904.75 142.946 1908.22 139.312 Q1911.71 135.678 1917.78 135.678 Q1919.75 135.678 1921.62 136.095 Q1923.5 136.488 1925.26 137.298 Z" fill="#000000" fill-rule="evenodd" fill-opacity="1"></path><path clip-path="url(#clip640)" d="M1936.88 128.942 L1936.88 136.303 L1945.65 136.303 L1945.65 139.613 L1936.88 139.613 L1936.88 153.687 Q1936.88 156.858 1937.73 157.761 Q1938.61 158.664 1941.27 158.664 L1945.65 158.664 L1945.65 162.229 L1941.27 162.229 Q1936.34 162.229 1934.47 160.4 Q1932.59 158.548 1932.59 153.687 L1932.59 139.613 L1929.47 139.613 L1929.47 136.303 L1932.59 136.303 L1932.59 128.942 L1936.88 128.942 Z" fill="#000000" fill-rule="evenodd" fill-opacity="1"></path><path clip-path="url(#clip640)" d="M1963.26 136.303 L1967.78 136.303 L1975.88 158.062 L1983.98 136.303 L1988.5 136.303 L1978.77 162.229 L1972.99 162.229 L1963.26 136.303 Z" fill="#000000" fill-rule="evenodd" fill-opacity="1"></path><path clip-path="url(#clip640)" d="M2006.16 149.196 Q2001 149.196 1999.01 150.377 Q1997.01 151.557 1997.01 154.405 Q1997.01 156.673 1998.5 158.016 Q2000 159.335 2002.57 159.335 Q2006.11 159.335 2008.24 156.835 Q2010.39 154.312 2010.39 150.145 L2010.39 149.196 L2006.16 149.196 M2014.65 147.437 L2014.65 162.229 L2010.39 162.229 L2010.39 158.293 Q2008.94 160.655 2006.76 161.789 Q2004.58 162.9 2001.44 162.9 Q1997.45 162.9 1995.09 160.678 Q1992.76 158.432 1992.76 154.682 Q1992.76 150.307 1995.67 148.085 Q1998.61 145.863 2004.42 145.863 L2010.39 145.863 L2010.39 145.446 Q2010.39 142.507 2008.45 140.909 Q2006.53 139.289 2003.03 139.289 Q2000.81 139.289 1998.7 139.821 Q1996.6 140.354 1994.65 141.419 L1994.65 137.483 Q1996.99 136.581 1999.19 136.141 Q2001.39 135.678 2003.47 135.678 Q2009.1 135.678 2011.88 138.594 Q2014.65 141.511 2014.65 147.437 Z" fill="#000000" fill-rule="evenodd" fill-opacity="1"></path><path clip-path="url(#clip640)" d="M2023.43 126.21 L2027.69 126.21 L2027.69 162.229 L2023.43 162.229 L2023.43 126.21 Z" fill="#000000" fill-rule="evenodd" fill-opacity="1"></path><path clip-path="url(#clip640)" d="M2036.16 151.997 L2036.16 136.303 L2040.42 136.303 L2040.42 151.835 Q2040.42 155.516 2041.85 157.368 Q2043.29 159.196 2046.16 159.196 Q2049.61 159.196 2051.6 156.997 Q2053.61 154.798 2053.61 151.002 L2053.61 136.303 L2057.87 136.303 L2057.87 162.229 L2053.61 162.229 L2053.61 158.247 Q2052.06 160.608 2050 161.766 Q2047.96 162.9 2045.26 162.9 Q2040.79 162.9 2038.47 160.122 Q2036.16 157.344 2036.16 151.997 M2046.88 135.678 L2046.88 135.678 Z" fill="#000000" fill-rule="evenodd" fill-opacity="1"></path><path clip-path="url(#clip640)" d="M2088.82 148.201 L2088.82 150.284 L2069.24 150.284 Q2069.51 154.682 2071.88 156.997 Q2074.26 159.289 2078.5 159.289 Q2080.95 159.289 2083.24 158.687 Q2085.56 158.085 2087.82 156.881 L2087.82 160.909 Q2085.53 161.881 2083.13 162.391 Q2080.72 162.9 2078.24 162.9 Q2072.04 162.9 2068.4 159.289 Q2064.79 155.678 2064.79 149.52 Q2064.79 143.155 2068.22 139.428 Q2071.67 135.678 2077.5 135.678 Q2082.73 135.678 2085.76 139.057 Q2088.82 142.414 2088.82 148.201 M2084.56 146.951 Q2084.51 143.456 2082.59 141.372 Q2080.69 139.289 2077.55 139.289 Q2073.98 139.289 2071.83 141.303 Q2069.7 143.317 2069.38 146.974 L2084.56 146.951 Z" fill="#000000" fill-rule="evenodd" fill-opacity="1"></path><polyline clip-path="url(#clip640)" style="stroke:#e26f46; stroke-linecap:round; stroke-linejoin:round; stroke-width:4; stroke-opacity:1; fill:none" points="1653.38,196.789 1795.6,196.789 "></polyline>
<path clip-path="url(#clip640)" d="M1702.54 174.84 L1702.54 218.737 L1746.44 218.737 L1746.44 174.84 L1702.54 174.84 Z" fill="#e26f46" fill-rule="evenodd" fill-opacity="1" stroke="#000000" stroke-opacity="1" stroke-width="5.12"></path>
<path clip-path="url(#clip640)" d="M1832.71 201.036 Q1827.55 201.036 1825.56 202.217 Q1823.57 203.397 1823.57 206.245 Q1823.57 208.513 1825.05 209.856 Q1826.55 211.175 1829.12 211.175 Q1832.66 211.175 1834.79 208.675 Q1836.95 206.152 1836.95 201.985 L1836.95 201.036 L1832.71 201.036 M1841.21 199.277 L1841.21 214.069 L1836.95 214.069 L1836.95 210.133 Q1835.49 212.495 1833.31 213.629 Q1831.14 214.74 1827.99 214.74 Q1824.01 214.74 1821.65 212.518 Q1819.31 210.272 1819.31 206.522 Q1819.31 202.147 1822.22 199.925 Q1825.16 197.703 1830.97 197.703 L1836.95 197.703 L1836.95 197.286 Q1836.95 194.347 1835 192.749 Q1833.08 191.129 1829.59 191.129 Q1827.36 191.129 1825.26 191.661 Q1823.15 192.194 1821.21 193.259 L1821.21 189.323 Q1823.54 188.421 1825.74 187.981 Q1827.94 187.518 1830.02 187.518 Q1835.65 187.518 1838.43 190.434 Q1841.21 193.351 1841.21 199.277 Z" fill="#000000" fill-rule="evenodd" fill-opacity="1"></path><path clip-path="url(#clip640)" d="M1854.1 210.18 L1854.1 223.93 L1849.82 223.93 L1849.82 188.143 L1854.1 188.143 L1854.1 192.078 Q1855.44 189.763 1857.48 188.652 Q1859.54 187.518 1862.39 187.518 Q1867.11 187.518 1870.05 191.268 Q1873.01 195.018 1873.01 201.129 Q1873.01 207.24 1870.05 210.99 Q1867.11 214.74 1862.39 214.74 Q1859.54 214.74 1857.48 213.629 Q1855.44 212.495 1854.1 210.18 M1868.59 201.129 Q1868.59 196.43 1866.65 193.768 Q1864.72 191.083 1861.34 191.083 Q1857.96 191.083 1856.02 193.768 Q1854.1 196.43 1854.1 201.129 Q1854.1 205.828 1856.02 208.513 Q1857.96 211.175 1861.34 211.175 Q1864.72 211.175 1866.65 208.513 Q1868.59 205.828 1868.59 201.129 Z" fill="#000000" fill-rule="evenodd" fill-opacity="1"></path><path clip-path="url(#clip640)" d="M1884.19 210.18 L1884.19 223.93 L1879.91 223.93 L1879.91 188.143 L1884.19 188.143 L1884.19 192.078 Q1885.53 189.763 1887.57 188.652 Q1889.63 187.518 1892.48 187.518 Q1897.2 187.518 1900.14 191.268 Q1903.1 195.018 1903.1 201.129 Q1903.1 207.24 1900.14 210.99 Q1897.2 214.74 1892.48 214.74 Q1889.63 214.74 1887.57 213.629 Q1885.53 212.495 1884.19 210.18 M1898.68 201.129 Q1898.68 196.43 1896.74 193.768 Q1894.82 191.083 1891.44 191.083 Q1888.06 191.083 1886.11 193.768 Q1884.19 196.43 1884.19 201.129 Q1884.19 205.828 1886.11 208.513 Q1888.06 211.175 1891.44 211.175 Q1894.82 211.175 1896.74 208.513 Q1898.68 205.828 1898.68 201.129 Z" fill="#000000" fill-rule="evenodd" fill-opacity="1"></path><path clip-path="url(#clip640)" d="M1925.19 192.124 Q1924.47 191.708 1923.61 191.522 Q1922.78 191.314 1921.76 191.314 Q1918.15 191.314 1916.2 193.675 Q1914.28 196.013 1914.28 200.411 L1914.28 214.069 L1910 214.069 L1910 188.143 L1914.28 188.143 L1914.28 192.171 Q1915.63 189.809 1917.78 188.675 Q1919.93 187.518 1923.01 187.518 Q1923.45 187.518 1923.98 187.587 Q1924.52 187.634 1925.16 187.749 L1925.19 192.124 Z" fill="#000000" fill-rule="evenodd" fill-opacity="1"></path><path clip-path="url(#clip640)" d="M1938.66 191.129 Q1935.23 191.129 1933.24 193.814 Q1931.25 196.476 1931.25 201.129 Q1931.25 205.782 1933.22 208.467 Q1935.21 211.129 1938.66 211.129 Q1942.06 211.129 1944.05 208.444 Q1946.04 205.758 1946.04 201.129 Q1946.04 196.522 1944.05 193.837 Q1942.06 191.129 1938.66 191.129 M1938.66 187.518 Q1944.21 187.518 1947.39 191.129 Q1950.56 194.74 1950.56 201.129 Q1950.56 207.495 1947.39 211.129 Q1944.21 214.74 1938.66 214.74 Q1933.08 214.74 1929.91 211.129 Q1926.76 207.495 1926.76 201.129 Q1926.76 194.74 1929.91 191.129 Q1933.08 187.518 1938.66 187.518 Z" fill="#000000" fill-rule="evenodd" fill-opacity="1"></path><path clip-path="url(#clip640)" d="M1977.71 188.143 L1968.33 200.759 L1978.2 214.069 L1973.17 214.069 L1965.63 203.883 L1958.08 214.069 L1953.06 214.069 L1963.13 200.504 L1953.91 188.143 L1958.94 188.143 L1965.81 197.379 L1972.69 188.143 L1977.71 188.143 Z" fill="#000000" fill-rule="evenodd" fill-opacity="1"></path><path clip-path="url(#clip640)" d="M1984.21 188.143 L1988.47 188.143 L1988.47 214.069 L1984.21 214.069 L1984.21 188.143 M1984.21 178.05 L1988.47 178.05 L1988.47 183.444 L1984.21 183.444 L1984.21 178.05 Z" fill="#000000" fill-rule="evenodd" fill-opacity="1"></path><path clip-path="url(#clip640)" d="M2017.57 193.12 Q2019.17 190.249 2021.39 188.884 Q2023.61 187.518 2026.62 187.518 Q2030.67 187.518 2032.87 190.365 Q2035.07 193.189 2035.07 198.421 L2035.07 214.069 L2030.79 214.069 L2030.79 198.559 Q2030.79 194.833 2029.47 193.027 Q2028.15 191.222 2025.44 191.222 Q2022.13 191.222 2020.21 193.421 Q2018.29 195.62 2018.29 199.416 L2018.29 214.069 L2014.01 214.069 L2014.01 198.559 Q2014.01 194.809 2012.69 193.027 Q2011.37 191.222 2008.61 191.222 Q2005.35 191.222 2003.43 193.444 Q2001.51 195.643 2001.51 199.416 L2001.51 214.069 L1997.22 214.069 L1997.22 188.143 L2001.51 188.143 L2001.51 192.171 Q2002.96 189.786 2005 188.652 Q2007.04 187.518 2009.84 187.518 Q2012.66 187.518 2014.63 188.953 Q2016.62 190.388 2017.57 193.12 Z" fill="#000000" fill-rule="evenodd" fill-opacity="1"></path><path clip-path="url(#clip640)" d="M2055.35 201.036 Q2050.19 201.036 2048.19 202.217 Q2046.2 203.397 2046.2 206.245 Q2046.2 208.513 2047.69 209.856 Q2049.19 211.175 2051.76 211.175 Q2055.3 211.175 2057.43 208.675 Q2059.58 206.152 2059.58 201.985 L2059.58 201.036 L2055.35 201.036 M2063.84 199.277 L2063.84 214.069 L2059.58 214.069 L2059.58 210.133 Q2058.13 212.495 2055.95 213.629 Q2053.77 214.74 2050.63 214.74 Q2046.64 214.74 2044.28 212.518 Q2041.94 210.272 2041.94 206.522 Q2041.94 202.147 2044.86 199.925 Q2047.8 197.703 2053.61 197.703 L2059.58 197.703 L2059.58 197.286 Q2059.58 194.347 2057.64 192.749 Q2055.72 191.129 2052.22 191.129 Q2050 191.129 2047.89 191.661 Q2045.79 192.194 2043.84 193.259 L2043.84 189.323 Q2046.18 188.421 2048.38 187.981 Q2050.58 187.518 2052.66 187.518 Q2058.29 187.518 2061.07 190.434 Q2063.84 193.351 2063.84 199.277 Z" fill="#000000" fill-rule="evenodd" fill-opacity="1"></path><path clip-path="url(#clip640)" d="M2076.83 180.782 L2076.83 188.143 L2085.6 188.143 L2085.6 191.453 L2076.83 191.453 L2076.83 205.527 Q2076.83 208.698 2077.69 209.601 Q2078.57 210.504 2081.23 210.504 L2085.6 210.504 L2085.6 214.069 L2081.23 214.069 Q2076.3 214.069 2074.42 212.24 Q2072.55 210.388 2072.55 205.527 L2072.55 191.453 L2069.42 191.453 L2069.42 188.143 L2072.55 188.143 L2072.55 180.782 L2076.83 180.782 Z" fill="#000000" fill-rule="evenodd" fill-opacity="1"></path><path clip-path="url(#clip640)" d="M2113.38 200.041 L2113.38 202.124 L2093.8 202.124 Q2094.07 206.522 2096.44 208.837 Q2098.82 211.129 2103.06 211.129 Q2105.51 211.129 2107.8 210.527 Q2110.12 209.925 2112.38 208.721 L2112.38 212.749 Q2110.09 213.721 2107.69 214.231 Q2105.28 214.74 2102.8 214.74 Q2096.6 214.74 2092.96 211.129 Q2089.35 207.518 2089.35 201.36 Q2089.35 194.995 2092.78 191.268 Q2096.23 187.518 2102.06 187.518 Q2107.29 187.518 2110.32 190.897 Q2113.38 194.254 2113.38 200.041 M2109.12 198.791 Q2109.07 195.296 2107.15 193.212 Q2105.25 191.129 2102.11 191.129 Q2098.54 191.129 2096.39 193.143 Q2094.26 195.157 2093.94 198.814 L2109.12 198.791 Z" fill="#000000" fill-rule="evenodd" fill-opacity="1"></path><path clip-path="url(#clip640)" d="M2132.38 188.143 L2136.9 188.143 L2145 209.902 L2153.1 188.143 L2157.62 188.143 L2147.89 214.069 L2142.11 214.069 L2132.38 188.143 Z" fill="#000000" fill-rule="evenodd" fill-opacity="1"></path><path clip-path="url(#clip640)" d="M2175.28 201.036 Q2170.12 201.036 2168.12 202.217 Q2166.13 203.397 2166.13 206.245 Q2166.13 208.513 2167.62 209.856 Q2169.12 211.175 2171.69 211.175 Q2175.23 211.175 2177.36 208.675 Q2179.51 206.152 2179.51 201.985 L2179.51 201.036 L2175.28 201.036 M2183.77 199.277 L2183.77 214.069 L2179.51 214.069 L2179.51 210.133 Q2178.06 212.495 2175.88 213.629 Q2173.7 214.74 2170.56 214.74 Q2166.57 214.74 2164.21 212.518 Q2161.87 210.272 2161.87 206.522 Q2161.87 202.147 2164.79 199.925 Q2167.73 197.703 2173.54 197.703 L2179.51 197.703 L2179.51 197.286 Q2179.51 194.347 2177.57 192.749 Q2175.65 191.129 2172.15 191.129 Q2169.93 191.129 2167.82 191.661 Q2165.72 192.194 2163.77 193.259 L2163.77 189.323 Q2166.11 188.421 2168.31 187.981 Q2170.51 187.518 2172.59 187.518 Q2178.22 187.518 2181 190.434 Q2183.77 193.351 2183.77 199.277 Z" fill="#000000" fill-rule="evenodd" fill-opacity="1"></path><path clip-path="url(#clip640)" d="M2192.55 178.05 L2196.81 178.05 L2196.81 214.069 L2192.55 214.069 L2192.55 178.05 Z" fill="#000000" fill-rule="evenodd" fill-opacity="1"></path><path clip-path="url(#clip640)" d="M2205.28 203.837 L2205.28 188.143 L2209.54 188.143 L2209.54 203.675 Q2209.54 207.356 2210.97 209.208 Q2212.41 211.036 2215.28 211.036 Q2218.73 211.036 2220.72 208.837 Q2222.73 206.638 2222.73 202.842 L2222.73 188.143 L2226.99 188.143 L2226.99 214.069 L2222.73 214.069 L2222.73 210.087 Q2221.18 212.448 2219.12 213.606 Q2217.08 214.74 2214.37 214.74 Q2209.91 214.74 2207.59 211.962 Q2205.28 209.184 2205.28 203.837 M2215.99 187.518 L2215.99 187.518 Z" fill="#000000" fill-rule="evenodd" fill-opacity="1"></path><path clip-path="url(#clip640)" d="M2257.94 200.041 L2257.94 202.124 L2238.36 202.124 Q2238.63 206.522 2240.99 208.837 Q2243.38 211.129 2247.62 211.129 Q2250.07 211.129 2252.36 210.527 Q2254.68 209.925 2256.94 208.721 L2256.94 212.749 Q2254.65 213.721 2252.24 214.231 Q2249.84 214.74 2247.36 214.74 Q2241.16 214.74 2237.52 211.129 Q2233.91 207.518 2233.91 201.36 Q2233.91 194.995 2237.34 191.268 Q2240.79 187.518 2246.62 187.518 Q2251.85 187.518 2254.88 190.897 Q2257.94 194.254 2257.94 200.041 M2253.68 198.791 Q2253.63 195.296 2251.71 193.212 Q2249.81 191.129 2246.67 191.129 Q2243.1 191.129 2240.95 193.143 Q2238.82 195.157 2238.49 198.814 L2253.68 198.791 Z" fill="#000000" fill-rule="evenodd" fill-opacity="1"></path></svg>